<svg width="1024" height="1024" viewBox="0 0 1024 1024" fill="none" xmlns="http://www.w3.org/2000/svg">
<path d="M876.149 138C844 115.5 830 109.5 789 96L705 292.64C705 292.64 642 84.6486 634.5 68.15C600.5 66 574.121 64.9999 532 65C532 65 532.261 285.953 532.231 396.568C532.227 409.892 532.224 423.217 532.22 436.542L532.217 444.591C532.205 487.713 532.184 530.835 532.157 573.957C532.13 618.338 532.11 662.718 532.104 707.099L532 960C561 950 598 932.5 644.5 905.5C645.497 738.389 644.032 579.972 645 417.775L705 620.5L774.252 416.022C774.252 536.06 774 672.662 774 789.169C808.5 752.169 848 690 864.5 633C865.642 629.126 866.891 624.259 868 620.5C880.5 574.5 877.446 572.619 876.781 475.885C876.695 463.815 876.66 451.746 876.644 439.676C876.618 416.837 876.543 393.999 876.426 371.161C876.291 344.987 876.209 318.814 876.149 292.64C876.022 236.281 876.424 194.358 876.149 138Z" fill="#0A8EDD"/>
<path d="M493.573 65C493.573 360.361 493.573 655.723 493.573 960.034C472.913 953.147 454.391 946.484 435.258 936.708C432.871 935.496 430.485 934.284 428.026 933.036C392.49 914.72 361.448 892.804 331.154 866.73C328.472 864.435 325.79 862.141 323.027 859.778C314.048 851.894 305.304 843.812 296.596 835.628C294.523 833.69 292.449 831.752 290.313 829.756C216.091 759.857 159.868 672.777 148 569.537C148 555.852 148 542.167 148 528.068C182.212 528.068 216.423 528.068 251.672 528.068C253.525 537.761 255.378 547.455 257.287 557.442C269.536 617.461 291.997 670.565 331.154 718.133C333.363 721.127 335.573 724.12 337.849 727.204C346.569 737.246 356.27 745.635 366.386 754.243C372.623 759.602 372.623 759.602 379.534 766.513C379.531 764.259 379.528 762.005 379.524 759.683C379.447 704.182 379.39 648.682 379.355 593.181C379.337 566.339 379.313 539.496 379.273 512.654C378.935 281.342 376.945 281.625 381 182.777C319.425 192.631 321.415 192.349 260.352 204.903C251.672 206.685 251.367 207.277 241 207.277C241 170.785 241.305 133.7 241.305 96.1016C322.63 68.993 408.392 65 493.573 65Z" fill="#0A8EDD"/>
</svg>
