<svg width="2802" height="1258" viewBox="0 0 2802 1258" fill="none" xmlns="http://www.w3.org/2000/svg">
<rect width="2802" height="1258" fill="white"/>
<path d="M876.149 299C844 276.5 830 270.5 789 257L705 453.64C705 453.64 642 245.649 634.5 229.15C600.5 227 574.121 226 532 226C532 226 532.261 446.953 532.231 557.568C532.227 570.892 532.224 584.217 532.22 597.542L532.217 605.591C532.205 648.713 532.184 691.835 532.157 734.957C532.13 779.338 532.11 823.718 532.104 868.099L532 1121C561 1111 598 1093.5 644.5 1066.5C645.497 899.389 644.032 740.972 645 578.775L705 781.5L774.252 577.022C774.252 697.06 774 833.662 774 950.169C808.5 913.169 848 851 864.5 794C865.642 790.126 866.891 785.259 868 781.5C880.5 735.5 877.446 733.619 876.781 636.885C876.695 624.815 876.66 612.746 876.644 600.676C876.618 577.837 876.543 554.999 876.426 532.161C876.291 505.987 876.209 479.814 876.149 453.64C876.022 397.281 876.424 355.358 876.149 299Z" fill="#0A8EDD"/>
<path d="M493.573 226C493.573 521.361 493.573 816.723 493.573 1121.03C472.913 1114.15 454.391 1107.48 435.258 1097.71C432.871 1096.5 430.485 1095.28 428.026 1094.04C392.49 1075.72 361.448 1053.8 331.154 1027.73C328.472 1025.44 325.79 1023.14 323.027 1020.78C314.048 1012.89 305.304 1004.81 296.596 996.628C294.523 994.69 292.449 992.752 290.313 990.756C216.091 920.857 159.868 833.777 148 730.537C148 716.852 148 703.167 148 689.068C182.212 689.068 216.423 689.068 251.672 689.068C253.525 698.761 255.378 708.455 257.287 718.442C269.536 778.461 291.997 831.565 331.154 879.133C333.363 882.127 335.573 885.12 337.849 888.204C346.569 898.246 356.27 906.635 366.386 915.243C372.623 920.602 372.623 920.602 379.534 927.513C379.531 925.259 379.528 923.005 379.524 920.683C379.447 865.182 379.39 809.682 379.355 754.181C379.337 727.339 379.313 700.496 379.273 673.654C378.935 442.342 376.945 442.625 381 343.777C319.425 353.631 321.415 353.349 260.352 365.903C251.672 367.685 251.367 368.277 241 368.277C241 331.785 241.305 294.7 241.305 257.102C322.63 229.993 408.392 226 493.573 226Z" fill="#0A8EDD"/>
<path d="M1034.03 477.059C1034.03 455.995 1038.58 437.26 1047.7 420.854C1056.81 404.246 1069.47 391.385 1085.67 382.27C1102.08 372.954 1120.61 368.295 1141.27 368.295C1166.59 368.295 1188.26 374.979 1206.29 388.347C1224.31 401.714 1236.36 419.943 1242.44 443.032H1185.32C1181.07 434.121 1174.99 427.336 1167.09 422.677C1159.4 418.019 1150.59 415.69 1140.66 415.69C1124.66 415.69 1111.7 421.259 1101.78 432.399C1091.85 443.539 1086.89 458.425 1086.89 477.059C1086.89 495.693 1091.85 510.579 1101.78 521.719C1111.7 532.859 1124.66 538.429 1140.66 538.429C1150.59 538.429 1159.4 536.099 1167.09 531.441C1174.99 526.783 1181.07 519.997 1185.32 511.086H1242.44C1236.36 534.175 1224.31 552.404 1206.29 565.771C1188.26 578.937 1166.59 585.519 1141.27 585.519C1120.61 585.519 1102.08 580.962 1085.67 571.848C1069.47 562.531 1056.81 549.67 1047.7 533.264C1038.58 516.858 1034.03 498.123 1034.03 477.059ZM1378.46 412.651C1397.9 412.651 1413.5 419.133 1425.25 432.095C1436.99 444.855 1442.87 462.476 1442.87 484.958V584H1391.22V491.946C1391.22 480.603 1388.28 471.793 1382.41 465.514C1376.54 459.236 1368.64 456.096 1358.71 456.096C1348.79 456.096 1340.89 459.236 1335.02 465.514C1329.14 471.793 1326.21 480.603 1326.21 491.946V584H1274.25V359.181H1326.21V437.26C1331.47 429.766 1338.66 423.791 1347.78 419.335C1356.89 414.879 1367.12 412.651 1378.46 412.651ZM1468.64 498.933C1468.64 481.515 1471.88 466.223 1478.36 453.058C1485.05 439.893 1494.06 429.766 1505.4 422.677C1516.74 415.588 1529.4 412.044 1543.38 412.044C1555.33 412.044 1565.76 414.474 1574.67 419.335C1583.78 424.196 1590.77 430.576 1595.63 438.475V414.474H1647.58V584H1595.63V559.999C1590.57 567.898 1583.48 574.278 1574.37 579.139C1565.45 584 1555.02 586.43 1543.07 586.43C1529.3 586.43 1516.74 582.886 1505.4 575.797C1494.06 568.506 1485.05 558.277 1478.36 545.112C1471.88 531.745 1468.64 516.352 1468.64 498.933ZM1595.63 499.237C1595.63 486.275 1591.99 476.046 1584.69 468.552C1577.61 461.058 1568.9 457.311 1558.57 457.311C1548.24 457.311 1539.43 461.058 1532.14 468.552C1525.05 475.844 1521.5 485.971 1521.5 498.933C1521.5 511.896 1525.05 522.225 1532.14 529.922C1539.43 537.416 1548.24 541.163 1558.57 541.163C1568.9 541.163 1577.61 537.416 1584.69 529.922C1591.99 522.428 1595.63 512.2 1595.63 499.237ZM1762.34 586.43C1745.73 586.43 1730.74 582.886 1717.37 575.797C1704.21 568.708 1693.78 558.581 1686.08 545.416C1678.59 532.251 1674.84 516.858 1674.84 499.237C1674.84 481.819 1678.69 466.527 1686.38 453.362C1694.08 439.994 1704.61 429.766 1717.98 422.677C1731.35 415.588 1746.33 412.044 1762.94 412.044C1779.55 412.044 1794.54 415.588 1807.91 422.677C1821.27 429.766 1831.81 439.994 1839.5 453.362C1847.2 466.527 1851.05 481.819 1851.05 499.237C1851.05 516.656 1847.1 532.049 1839.2 545.416C1831.5 558.581 1820.87 568.708 1807.3 575.797C1793.93 582.886 1778.94 586.43 1762.34 586.43ZM1762.34 541.467C1772.26 541.467 1780.67 537.821 1787.55 530.53C1794.64 523.238 1798.19 512.807 1798.19 499.237C1798.19 485.667 1794.74 475.236 1787.86 467.945C1781.17 460.653 1772.87 457.008 1762.94 457.008C1752.82 457.008 1744.41 460.653 1737.73 467.945C1731.04 475.034 1727.7 485.464 1727.7 499.237C1727.7 512.807 1730.94 523.238 1737.42 530.53C1744.11 537.821 1752.41 541.467 1762.34 541.467ZM2046.01 414.474V584H1994.06V560.91C1988.79 568.404 1981.6 574.481 1972.49 579.139C1963.57 583.595 1953.65 585.823 1942.71 585.823C1929.75 585.823 1918.31 582.987 1908.38 577.316C1898.46 571.443 1890.76 563.037 1885.29 552.1C1879.82 541.163 1877.09 528.302 1877.09 513.516V414.474H1928.74V506.529C1928.74 517.871 1931.67 526.681 1937.55 532.96C1943.42 539.239 1951.32 542.378 1961.25 542.378C1971.37 542.378 1979.37 539.239 1985.25 532.96C1991.12 526.681 1994.06 517.871 1994.06 506.529V414.474H2046.01ZM2135.28 359.181V584H2083.32V359.181H2135.28ZM1094.79 672.726V886H1042.84V672.726H1094.79ZM1235.73 714.651C1255.58 714.651 1271.38 721.133 1283.13 734.095C1295.08 746.855 1301.05 764.476 1301.05 786.958V886H1249.4V793.946C1249.4 782.603 1246.47 773.793 1240.59 767.514C1234.72 761.236 1226.82 758.096 1216.9 758.096C1206.97 758.096 1199.07 761.236 1193.2 767.514C1187.32 773.793 1184.39 782.603 1184.39 793.946V886H1132.44V716.474H1184.39V738.956C1189.65 731.462 1196.74 725.589 1205.65 721.335C1214.57 716.879 1224.59 714.651 1235.73 714.651ZM1406.12 888.43C1391.33 888.43 1378.17 885.899 1366.62 880.835C1355.08 875.772 1345.96 868.885 1339.28 860.176C1332.59 851.264 1328.85 841.34 1328.04 830.403H1379.38C1379.99 836.277 1382.72 841.036 1387.58 844.682C1392.45 848.328 1398.42 850.15 1405.51 850.15C1411.99 850.15 1416.95 848.935 1420.4 846.505C1424.04 843.872 1425.86 840.53 1425.86 836.479C1425.86 831.618 1423.33 828.074 1418.27 825.846C1413.21 823.415 1405 820.782 1393.66 817.947C1381.51 815.111 1371.38 812.174 1363.28 809.136C1355.18 805.896 1348.19 800.933 1342.32 794.25C1336.44 787.363 1333.51 778.148 1333.51 766.603C1333.51 756.881 1336.14 748.07 1341.41 740.171C1346.87 732.07 1354.77 725.69 1365.1 721.031C1375.63 716.373 1388.09 714.044 1402.47 714.044C1423.74 714.044 1440.45 719.31 1452.6 729.842C1464.95 740.374 1472.04 754.349 1473.87 771.768H1425.86C1425.05 765.894 1422.42 761.236 1417.97 757.792C1413.71 754.349 1408.04 752.628 1400.95 752.628C1394.88 752.628 1390.22 753.843 1386.98 756.273C1383.74 758.501 1382.12 761.641 1382.12 765.691C1382.12 770.552 1384.65 774.198 1389.71 776.629C1394.98 779.059 1403.08 781.49 1414.02 783.92C1426.57 787.161 1436.8 790.401 1444.7 793.642C1452.6 796.68 1459.49 801.743 1465.36 808.832C1471.44 815.719 1474.57 825.036 1474.78 836.783C1474.78 846.707 1471.94 855.619 1466.27 863.518C1460.8 871.215 1452.8 877.291 1442.27 881.747C1431.94 886.203 1419.89 888.43 1406.12 888.43ZM1673.96 716.474V886H1622.01V862.91C1616.74 870.404 1609.55 876.481 1600.44 881.139C1591.53 885.595 1581.6 887.823 1570.66 887.823C1557.7 887.823 1546.26 884.987 1536.33 879.316C1526.41 873.443 1518.71 865.037 1513.24 854.1C1507.78 843.163 1505.04 830.302 1505.04 815.516V716.474H1556.69V808.529C1556.69 819.871 1559.63 828.681 1565.5 834.96C1571.37 841.239 1579.27 844.378 1589.2 844.378C1599.32 844.378 1607.32 841.239 1613.2 834.96C1619.07 828.681 1622.01 819.871 1622.01 808.529V716.474H1673.96ZM1763.23 744.729C1769.3 735.412 1776.9 728.12 1786.01 722.854C1795.13 717.386 1805.25 714.651 1816.39 714.651V769.641H1802.12C1789.15 769.641 1779.43 772.476 1772.95 778.148C1766.47 783.616 1763.23 793.338 1763.23 807.313V886H1711.28V716.474H1763.23V744.729ZM1830.9 800.933C1830.9 783.515 1834.14 768.223 1840.62 755.058C1847.3 741.893 1856.32 731.766 1867.66 724.677C1879 717.588 1891.66 714.044 1905.63 714.044C1917.58 714.044 1928.01 716.474 1936.93 721.335C1946.04 726.196 1953.03 732.576 1957.89 740.475V716.474H2009.84V886H1957.89V861.999C1952.83 869.898 1945.74 876.278 1936.62 881.139C1927.71 886 1917.28 888.43 1905.33 888.43C1891.56 888.43 1879 884.886 1867.66 877.797C1856.32 870.506 1847.3 860.277 1840.62 847.112C1834.14 833.745 1830.9 818.352 1830.9 800.933ZM1957.89 801.237C1957.89 788.275 1954.24 778.046 1946.95 770.552C1939.86 763.058 1931.15 759.311 1920.82 759.311C1910.49 759.311 1901.68 763.058 1894.39 770.552C1887.3 777.844 1883.76 787.971 1883.76 800.933C1883.76 813.896 1887.3 824.225 1894.39 831.922C1901.68 839.416 1910.49 843.163 1920.82 843.163C1931.15 843.163 1939.86 839.416 1946.95 831.922C1954.24 824.428 1957.89 814.2 1957.89 801.237ZM2150.72 714.651C2170.57 714.651 2186.37 721.133 2198.11 734.095C2210.06 746.855 2216.04 764.476 2216.04 786.958V886H2164.39V793.946C2164.39 782.603 2161.46 773.793 2155.58 767.514C2149.71 761.236 2141.81 758.096 2131.88 758.096C2121.96 758.096 2114.06 761.236 2108.19 767.514C2102.31 773.793 2099.38 782.603 2099.38 793.946V886H2047.43V716.474H2099.38V738.956C2104.64 731.462 2111.73 725.589 2120.64 721.335C2129.56 716.879 2139.58 714.651 2150.72 714.651ZM2241.81 801.237C2241.81 783.616 2245.36 768.223 2252.44 755.058C2259.74 741.893 2269.76 731.766 2282.52 724.677C2295.48 717.588 2310.27 714.044 2326.88 714.044C2348.14 714.044 2365.87 719.614 2380.04 730.753C2394.42 741.893 2403.84 757.59 2408.3 777.844H2353.01C2348.35 764.881 2339.33 758.4 2325.97 758.4C2316.45 758.4 2308.85 762.147 2303.18 769.641C2297.51 776.932 2294.67 787.464 2294.67 801.237C2294.67 815.01 2297.51 825.643 2303.18 833.137C2308.85 840.429 2316.45 844.074 2325.97 844.074C2339.33 844.074 2348.35 837.593 2353.01 824.63H2408.3C2403.84 844.479 2394.42 860.075 2380.04 871.417C2365.66 882.759 2347.94 888.43 2326.88 888.43C2310.27 888.43 2295.48 884.886 2282.52 877.797C2269.76 870.708 2259.74 860.581 2252.44 847.416C2245.36 834.251 2241.81 818.858 2241.81 801.237ZM2595.89 798.503C2595.89 803.364 2595.59 808.427 2594.98 813.693H2477.41C2478.22 824.225 2481.56 832.327 2487.43 837.998C2493.51 843.467 2500.9 846.201 2509.61 846.201C2522.57 846.201 2531.59 840.732 2536.65 829.795H2591.94C2589.11 840.935 2583.94 850.961 2576.45 859.872C2569.16 868.784 2559.94 875.772 2548.8 880.835C2537.66 885.899 2525.21 888.43 2511.43 888.43C2494.82 888.43 2480.04 884.886 2467.08 877.797C2454.11 870.708 2443.99 860.581 2436.7 847.416C2429.4 834.251 2425.76 818.858 2425.76 801.237C2425.76 783.616 2429.3 768.223 2436.39 755.058C2443.68 741.893 2453.81 731.766 2466.77 724.677C2479.74 717.588 2494.62 714.044 2511.43 714.044C2527.84 714.044 2542.42 717.487 2555.18 724.373C2567.94 731.26 2577.87 741.083 2584.95 753.843C2592.25 766.603 2595.89 781.49 2595.89 798.503ZM2542.72 784.831C2542.72 775.92 2539.69 768.831 2533.61 763.565C2527.53 758.299 2519.94 755.666 2510.82 755.666C2502.12 755.666 2494.72 758.197 2488.65 763.261C2482.77 768.324 2479.13 775.515 2477.71 784.831H2542.72Z" fill="#003366"/>
</svg>
